<svg xmlns="http://www.w3.org/2000/svg" version="1.1" xmlns:xlink="http://www.w3.org/1999/xlink" viewBox="0 0 200 200"><rect width="200" height="200" fill="url('#gradient')"></rect><defs><linearGradient id="gradient" gradientTransform="rotate(82 0.5 0.5)"><stop offset="0%" stop-color="#2f51ec"></stop><stop offset="100%" stop-color="#ffffff"></stop></linearGradient></defs><g><g fill="#0053ff" transform="matrix(5.674226804123712,0,0,5.674226804123712,12.819173781097547,133.50951561288736)" stroke="#fff544" stroke-width="1.55"><path d="M10.11-14.22L12.09-5.30L13.72-14.22L17.12-14.22L14.10 0L10.55 0L8.64-8.11L6.78 0L3.23 0L0.21-14.22L3.61-14.22L5.24-5.30L7.20-14.22L10.11-14.22ZM30.52-7.47L30.52-6.82Q30.52-4.84 29.86-3.37Q29.21-1.90 28.06-1.02L28.06-1.02L30.35 0.80L28.23 2.60L25.18 0.14Q24.75 0.20 24.32 0.20L24.32 0.20Q22.50 0.20 21.09-0.64Q19.69-1.48 18.90-3.05Q18.12-4.61 18.09-6.64L18.09-6.64L18.09-7.39Q18.09-9.49 18.85-11.08Q19.62-12.68 21.04-13.54Q22.46-14.41 24.30-14.41L24.30-14.41Q26.10-14.41 27.52-13.55Q28.94-12.70 29.72-11.11Q30.51-9.52 30.52-7.47L30.52-7.47ZM27.03-6.76L27.03-7.41Q27.03-9.53 26.32-10.63Q25.62-11.73 24.30-11.73L24.30-11.73Q22.94-11.73 22.26-10.64Q21.57-9.56 21.56-7.47L21.56-7.47L21.56-6.82Q21.56-4.72 22.26-3.60Q22.95-2.48 24.32-2.48L24.32-2.48Q25.63-2.48 26.32-3.58Q27.02-4.69 27.03-6.76L27.03-6.76Z"></path></g></g></svg>